<?xml version="1.0" encoding="UTF-8"?><svg xmlns="http://www.w3.org/2000/svg" xmlns:xlink="http://www.w3.org/1999/xlink" fill-opacity="1" color-rendering="auto" color-interpolation="auto" text-rendering="auto" stroke="black" stroke-linecap="square" width="940" stroke-miterlimit="10" shape-rendering="auto" stroke-opacity="1" fill="black" stroke-dasharray="none" font-weight="normal" stroke-width="1" height="662" font-family="'Dialog'" font-style="normal" stroke-linejoin="miter" font-size="12px" stroke-dashoffset="0" image-rendering="auto">
  <!--Generated by ySVG 2.6-->
  <defs id="genericDefs"/>
  <g>
    <defs id="defs1">
      <clipPath clipPathUnits="userSpaceOnUse" id="clipPath1">
        <path d="M0 0 L940 0 L940 662 L0 662 L0 0 Z"/>
      </clipPath>
      <clipPath clipPathUnits="userSpaceOnUse" id="clipPath2">
        <path d="M32 -20 L972 -20 L972 642 L32 642 L32 -20 Z"/>
      </clipPath>
      <clipPath clipPathUnits="userSpaceOnUse" id="clipPath3">
        <path d="M-72.4707 -90.4103 L867.5275 -90.4103 L867.5275 571.5897 L-72.4707 571.5897 L-72.4707 -90.4103 Z"/>
      </clipPath>
    </defs>
    <g fill="white" text-rendering="geometricPrecision" shape-rendering="geometricPrecision" transform="translate(-32,20)" stroke="white">
      <rect x="32" width="940" height="662" y="-20" clip-path="url(#clipPath2)" stroke="none"/>
    </g>
    <g fill="rgb(238,238,238)" text-rendering="geometricPrecision" shape-rendering="geometricPrecision" transform="matrix(1,0,0,1,-32,20)" stroke="rgb(238,238,238)">
      <rect x="633.9506" y="176.1246" clip-path="url(#clipPath2)" width="322.055" rx="4" ry="4" height="305.48" stroke="none"/>
    </g>
    <g text-rendering="geometricPrecision" stroke-miterlimit="1.45" shape-rendering="geometricPrecision" transform="matrix(1,0,0,1,-32,20)" stroke-linecap="butt">
      <rect x="633.9506" y="176.1246" clip-path="url(#clipPath2)" fill="none" width="322.055" rx="4" ry="4" height="305.48"/>
      <text x="737.6207" xml:space="preserve" y="194.1891" clip-path="url(#clipPath2)" font-family="sans-serif" stroke="none">Carmentis blockchain</text>
    </g>
    <g fill="rgb(238,238,238)" text-rendering="geometricPrecision" shape-rendering="geometricPrecision" transform="matrix(1,0,0,1,-32,20)" stroke="rgb(238,238,238)">
      <rect x="47.2204" y="373.0862" clip-path="url(#clipPath2)" width="171.055" rx="4" ry="4" height="93.48" stroke="none"/>
    </g>
    <g text-rendering="geometricPrecision" stroke-miterlimit="1.45" shape-rendering="geometricPrecision" transform="matrix(1,0,0,1,-32,20)" stroke-linecap="butt">
      <rect x="47.2204" y="373.0862" clip-path="url(#clipPath2)" fill="none" width="171.055" rx="4" ry="4" height="93.48"/>
      <text x="116.078" xml:space="preserve" y="402.4883" clip-path="url(#clipPath2)" font-family="sans-serif" stroke="none">Wallet</text>
      <text x="131.0809" xml:space="preserve" y="417.1894" clip-path="url(#clipPath2)" font-family="sans-serif" stroke="none"> </text>
      <text x="101.3973" xml:space="preserve" y="431.8906" clip-path="url(#clipPath2)" font-family="sans-serif" stroke="none">(mobile app</text>
      <text x="75.0565" xml:space="preserve" y="446.5918" clip-path="url(#clipPath2)" font-family="sans-serif" stroke="none">or browser extension)</text>
    </g>
    <g fill="rgb(238,238,238)" text-rendering="geometricPrecision" shape-rendering="geometricPrecision" transform="matrix(1,0,0,1,-32,20)" stroke="rgb(238,238,238)">
      <rect x="367.4449" y="167.1723" clip-path="url(#clipPath2)" width="171.055" rx="4" ry="4" height="93.48" stroke="none"/>
    </g>
    <g text-rendering="geometricPrecision" stroke-miterlimit="1.45" shape-rendering="geometricPrecision" transform="matrix(1,0,0,1,-32,20)" stroke-linecap="butt">
      <rect x="367.4449" y="167.1723" clip-path="url(#clipPath2)" fill="none" width="171.055" rx="4" ry="4" height="93.48"/>
      <text x="423.6199" xml:space="preserve" y="185.2368" clip-path="url(#clipPath2)" font-family="sans-serif" stroke="none">Application</text>
    </g>
    <g fill="rgb(238,238,238)" text-rendering="geometricPrecision" shape-rendering="geometricPrecision" transform="matrix(1,0,0,1,-32,20)" stroke="rgb(238,238,238)">
      <rect x="367.7163" y="373.0862" clip-path="url(#clipPath2)" width="171.055" rx="4" ry="4" height="93.48" stroke="none"/>
    </g>
    <g text-rendering="geometricPrecision" stroke-miterlimit="1.45" shape-rendering="geometricPrecision" transform="matrix(1,0,0,1,-32,20)" stroke-linecap="butt">
      <rect x="367.7163" y="373.0862" clip-path="url(#clipPath2)" fill="none" width="171.055" rx="4" ry="4" height="93.48"/>
      <text x="411.2292" xml:space="preserve" y="417.1894" clip-path="url(#clipPath2)" font-family="sans-serif" stroke="none">Operator server</text>
      <text x="389.2213" xml:space="preserve" y="431.8906" clip-path="url(#clipPath2)" font-family="sans-serif" stroke="none">(provided by Carmentis)</text>
    </g>
    <g fill="rgb(238,238,238)" text-rendering="geometricPrecision" shape-rendering="geometricPrecision" transform="matrix(1,0,0,1,-32,20)" stroke="rgb(238,238,238)">
      <rect x="378.1061" y="200.8015" clip-path="url(#clipPath2)" width="150.055" rx="4" ry="4" height="45.48" stroke="none"/>
    </g>
    <g text-rendering="geometricPrecision" stroke-miterlimit="1.45" shape-rendering="geometricPrecision" transform="matrix(1,0,0,1,-32,20)" stroke-linecap="butt">
      <rect x="378.1061" y="200.8015" clip-path="url(#clipPath2)" fill="none" width="150.055" rx="4" ry="4" height="45.48"/>
      <text x="409.7772" xml:space="preserve" y="220.9048" clip-path="url(#clipPath2)" font-family="sans-serif" stroke="none">Application SDK</text>
      <text x="389.1111" xml:space="preserve" y="235.606" clip-path="url(#clipPath2)" font-family="sans-serif" stroke="none">(provided by Carmentis)</text>
    </g>
    <g fill="rgb(238,238,238)" text-rendering="geometricPrecision" shape-rendering="geometricPrecision" transform="matrix(1,0,0,1,-32,20)" stroke="rgb(238,238,238)">
      <rect x="736.9506" y="373.1723" clip-path="url(#clipPath2)" width="118.055" rx="4" ry="4" height="93.48" stroke="none"/>
    </g>
    <g text-rendering="geometricPrecision" stroke-miterlimit="1.45" shape-rendering="geometricPrecision" transform="matrix(1,0,0,1,-32,20)" stroke-linecap="butt">
      <rect x="736.9506" y="373.1723" clip-path="url(#clipPath2)" fill="none" width="118.055" rx="4" ry="4" height="93.48"/>
      <text x="751.2799" xml:space="preserve" y="424.6262" clip-path="url(#clipPath2)" font-family="sans-serif" stroke="none">Replication node</text>
    </g>
    <g fill="rgb(238,238,238)" text-rendering="geometricPrecision" shape-rendering="geometricPrecision" transform="matrix(1,0,0,1,-32,20)" stroke="rgb(238,238,238)">
      <rect x="47.2204" y="167.1723" clip-path="url(#clipPath2)" width="171.055" rx="4" ry="4" height="93.48" stroke="none"/>
    </g>
    <g text-rendering="geometricPrecision" stroke-miterlimit="1.45" shape-rendering="geometricPrecision" transform="matrix(1,0,0,1,-32,20)" stroke-linecap="butt">
      <rect x="47.2204" y="167.1723" clip-path="url(#clipPath2)" fill="none" width="171.055" rx="4" ry="4" height="93.48"/>
      <text x="118.744" xml:space="preserve" y="185.2368" clip-path="url(#clipPath2)" font-family="sans-serif" stroke="none">Front</text>
    </g>
    <g text-rendering="geometricPrecision" shape-rendering="geometricPrecision" transform="matrix(1,0,0,1,72.4709,90.4103)">
      <g clip-path="url(#clipPath3)">
        <svg xml:space="preserve" opacity="1" writing-mode="lr-tb" stop-color="rgb(0, 0, 0)" shape-rendering="auto" glyph-orientation-horizontal="0deg" color-profile="auto" lighting-color="rgb(255, 255, 255)" color="rgb(0, 0, 0)" font-weight="400" alignment-baseline="auto" font-style="normal" version="1.1" color-interpolation-filters="linearrgb" text-anchor="start" stroke-linecap="butt" color-interpolation="srgb" font-variant="normal" word-spacing="normal" fill-opacity="1" text-rendering="auto" clip-path="none" text-decoration="none" letter-spacing="normal" viewBox="0 0 57 67" glyph-orientation-vertical="auto" display="inline" font-size-adjust="none" overflow="hidden" fill="rgb(0, 0, 0)" font-stretch="normal" stroke-dasharray="none" id="svg1.Ebene_1" stroke-miterlimit="4" stop-opacity="1" color-rendering="auto" font-size="12" pointer-events="visiblepainted" mask="none" direction="ltr" baseline-shift="baseline" enable-background="new 0 0 57 67" fill-rule="nonzero" image-rendering="auto" stroke-dashoffset="0" width="57px" marker-end="none" clip="auto" cursor="auto" stroke="none" filter="none" visibility="visible" kerning="auto" stroke-width="1" font-family="&quot;Arial&quot;,&quot;Helvetica&quot;,sans-serif" flood-opacity="1" clip-rule="nonzero" src="none" height="67px" unicode-bidi="normal" stroke-linejoin="miter" stroke-opacity="1" flood-color="rgb(0, 0, 0)" dominant-baseline="auto" marker-start="none" x="0px" marker-mid="none" y="0px">
<g>
	
		<linearGradient gradientTransform="matrix(1 0 0 1 0.3203 -3091.7656)" x1="26.3398" x2="27.5807" gradientUnits="userSpaceOnUse" y1="3115.7266" y2="3145.5239" id="svg1.SVGID_1_">
		<stop offset="0.2711" style="stop-color:#FFAB4F"/>
		<stop offset="1" style="stop-color:#FFD28F"/>
	</linearGradient>
	<path fill="url(#svg1.SVGID_1_)" d="M49.529,51.225c-4.396-4.396-10.951-5.884-12.063-6.109   V37.8H19.278c0,0,0.038,6.903,0,6.868c0,0-6.874,0.997-12.308,6.432C1.378,56.691,0.5,62.77,0.5,62.77   c0,1.938,1.575,3.492,3.523,3.492h48.51c1.947,0,3.521-1.558,3.521-3.492C56.055,62.768,54.211,55.906,49.529,51.225z" stroke-miterlimit="10" stroke="#ED9135"/>
	
		<radialGradient gradientTransform="matrix(1 0 0 1 0.3203 -3091.7656)" gradientUnits="userSpaceOnUse" r="23.425" cx="27.5835" id="svg1.face_x5F_white_1_" cy="3117.4922" fx="23.0139" fy="3115.0024">
		<stop offset="0" style="stop-color:#FFD28F"/>
		<stop offset="1" style="stop-color:#FFAB4F"/>
	</radialGradient>
	<path fill="url(#svg1.face_x5F_white_1_)" id="svg1.face_x5F_white_3_" d="M43.676,23.357   c0.086,10.199-6.738,18.52-15.25,18.586c-8.5,0.068-15.464-8.146-15.55-18.344C12.794,13.4,19.618,5.079,28.123,5.012   C36.627,4.945,43.59,13.158,43.676,23.357z" stroke-miterlimit="10" stroke="#ED9135"/>
	
		<linearGradient gradientTransform="matrix(0.275 0 0 -0.2733 -1752.8849 -3350.4617)" x1="6468.5" x2="6492.1294" gradientUnits="userSpaceOnUse" y1="-12286.8594" y2="-12380.3086" id="svg1.face_highlight_1_">
		<stop offset="0" style="stop-color:#FFFFFF;stop-opacity:0.24"/>
		<stop offset="1" style="stop-color:#FFFFFF;stop-opacity:0.16"/>
	</linearGradient>
	<path fill="url(#svg1.face_highlight_1_)" id="svg1.face_highlight_3_" d="M28.415,5.625c-6.035,0.047-10.747,4.493-12.787,10.386   c-0.664,1.919-0.294,4.043,0.98,5.629c2.73,3.398,5.729,6.283,9.461,8.088c3.137,1.518,7.535,2.385,11.893,1.247   c2.274-0.592,3.988-2.459,4.375-4.766c0.187-1.094,0.293-2.289,0.283-3.553C42.54,13.244,36.729,5.56,28.415,5.625z"/>
	<path fill="#5C5C5C" d="M28.372,0.5   C17.537,0.5,8.269,7.748,9.153,26.125c0.563,6.563,5.862,12.042,9.366,13.531c-2.929-10.968-0.304-25.021-0.585-25.526   c-0.281-0.505,3.536,6.728,3.536,6.728l3.183-8.312c5.541,4.28,0.393,11.309,1.049,11.058c4.26-1.631,5.34-9.228,5.34-9.228   s2.729,3.657,2.701,5.504c-0.054,3.562,2.194-6.067,2.194-6.067l1.027,2.031c6.727,9.822,3.684,16.208,1.648,22.781   c15.666-0.703,12.291-10.48,9.66-18.407C43.59,6.092,39.206,0.5,28.372,0.5z" id="svg1.Hair_Female_1_Black_1_" stroke="#353535" stroke-linecap="round" stroke-linejoin="round"/>
	
		<linearGradient gradientTransform="matrix(0.9852 0 0 -0.9852 -34.4844 -3031.9851)" x1="95.9063" x2="31.5133" gradientUnits="userSpaceOnUse" y1="-3134.2153" y2="-3134.2153" id="svg1.body_1_">
		<stop offset="0" style="stop-color:#49AD33"/>
		<stop offset="1" style="stop-color:#C2DA92"/>
	</linearGradient>
	<path fill="url(#svg1.body_1_)" d="M0.5,62.768c0,1.938,1.575,3.494,3.523,3.494h48.51   c1.947,0,3.521-1.559,3.521-3.494c0,0-1.844-6.861-6.525-11.543c-4.815-4.813-8.244-5.146-8.244-5.146   c-1.444,6.983-8.555,8.786-13.007,8.786s-11.322-2.643-11.941-9.439c0,0-4.559,1.199-9.367,5.674   C1.378,56.689,0.5,62.768,0.5,62.768z" id="svg1.body_8_" stroke="#008D33"/>
</g>
</svg>
      </g>
    </g>
    <g fill="rgb(0,204,255)" text-rendering="geometricPrecision" shape-rendering="geometricPrecision" transform="matrix(1,0,0,1,-32,20)" stroke="rgb(0,204,255)">
      <rect x="367.6061" y="14.901" clip-path="url(#clipPath2)" width="171.055" rx="4" ry="4" height="33.48" stroke="none"/>
    </g>
    <g text-rendering="geometricPrecision" stroke-miterlimit="1.45" shape-rendering="geometricPrecision" transform="matrix(1,0,0,1,-32,20)" stroke-linecap="butt">
      <rect x="367.6061" y="14.901" clip-path="url(#clipPath2)" fill="none" width="171.055" rx="4" ry="4" height="33.48"/>
      <text x="409.1121" xml:space="preserve" y="36.3549" clip-path="url(#clipPath2)" font-family="sans-serif" stroke="none">Service operator</text>
    </g>
    <g fill="rgb(0,204,255)" text-rendering="geometricPrecision" shape-rendering="geometricPrecision" transform="matrix(1,0,0,1,-32,20)" stroke="rgb(0,204,255)">
      <rect x="47.2204" y="14.901" clip-path="url(#clipPath2)" width="171.055" rx="4" ry="4" height="33.48" stroke="none"/>
    </g>
    <g text-rendering="geometricPrecision" stroke-miterlimit="1.45" shape-rendering="geometricPrecision" transform="matrix(1,0,0,1,-32,20)" stroke-linecap="butt">
      <rect x="47.2204" y="14.901" clip-path="url(#clipPath2)" fill="none" width="171.055" rx="4" ry="4" height="33.48"/>
      <text x="108.7333" xml:space="preserve" y="36.3549" clip-path="url(#clipPath2)" font-family="sans-serif" stroke="none">End user</text>
    </g>
    <g fill="rgb(0,204,255)" text-rendering="geometricPrecision" shape-rendering="geometricPrecision" transform="matrix(1,0,0,1,-32,20)" stroke="rgb(0,204,255)">
      <rect x="709.4506" y="14.901" clip-path="url(#clipPath2)" width="171.055" rx="4" ry="4" height="33.48" stroke="none"/>
    </g>
    <g text-rendering="geometricPrecision" stroke-miterlimit="1.45" shape-rendering="geometricPrecision" transform="matrix(1,0,0,1,-32,20)" stroke-linecap="butt">
      <rect x="709.4506" y="14.901" clip-path="url(#clipPath2)" fill="none" width="171.055" rx="4" ry="4" height="33.48"/>
      <text x="744.9625" xml:space="preserve" y="36.3549" clip-path="url(#clipPath2)" font-family="sans-serif" stroke="none">Carmentis network</text>
    </g>
    <g fill="rgb(238,238,238)" text-rendering="geometricPrecision" shape-rendering="geometricPrecision" transform="matrix(1,0,0,1,-32,20)" stroke="rgb(238,238,238)">
      <rect x="57.7204" y="199.6031" clip-path="url(#clipPath2)" width="150.055" rx="4" ry="4" height="45.48" stroke="none"/>
    </g>
    <g text-rendering="geometricPrecision" stroke-miterlimit="1.45" shape-rendering="geometricPrecision" transform="matrix(1,0,0,1,-32,20)" stroke-linecap="butt">
      <rect x="57.7204" y="199.6031" clip-path="url(#clipPath2)" fill="none" width="150.055" rx="4" ry="4" height="45.48"/>
      <text x="103.4042" xml:space="preserve" y="219.7063" clip-path="url(#clipPath2)" font-family="sans-serif" stroke="none">Client SDK</text>
      <text x="68.7255" xml:space="preserve" y="234.4075" clip-path="url(#clipPath2)" font-family="sans-serif" stroke="none">(provided by Carmentis)</text>
    </g>
    <g fill="rgb(238,238,238)" text-rendering="geometricPrecision" shape-rendering="geometricPrecision" transform="matrix(1,0,0,1,-32,20)" stroke="rgb(238,238,238)">
      <rect x="824.9506" y="221.6046" clip-path="url(#clipPath2)" width="118.055" rx="4" ry="4" height="93.48" stroke="none"/>
    </g>
    <g text-rendering="geometricPrecision" stroke-miterlimit="1.45" shape-rendering="geometricPrecision" transform="matrix(1,0,0,1,-32,20)" stroke-linecap="butt">
      <rect x="824.9506" y="221.6046" clip-path="url(#clipPath2)" fill="none" width="118.055" rx="4" ry="4" height="93.48"/>
      <text x="845.2828" xml:space="preserve" y="273.0585" clip-path="url(#clipPath2)" font-family="sans-serif" stroke="none">Validator node</text>
    </g>
    <g fill="rgb(238,238,238)" text-rendering="geometricPrecision" shape-rendering="geometricPrecision" transform="matrix(1,0,0,1,-32,20)" stroke="rgb(238,238,238)">
      <rect x="648.9506" y="221.6046" clip-path="url(#clipPath2)" width="118.055" rx="4" ry="4" height="93.48" stroke="none"/>
    </g>
    <g text-rendering="geometricPrecision" stroke-miterlimit="1.45" shape-rendering="geometricPrecision" transform="matrix(1,0,0,1,-32,20)" stroke-linecap="butt">
      <rect x="648.9506" y="221.6046" clip-path="url(#clipPath2)" fill="none" width="118.055" rx="4" ry="4" height="93.48"/>
      <text x="669.2828" xml:space="preserve" y="273.0585" clip-path="url(#clipPath2)" font-family="sans-serif" stroke="none">Validator node</text>
      <path fill="none" d="M493.2175 167.1423 L492.8847 164.9618 L491.8808 161.0575 L490.5109 157.3145 L488.7953 153.7532 L486.7547 150.3942 L484.4094 147.2579 L481.7799 144.3648 L478.8868 141.7354 L475.7505 139.3901 L472.3915 137.3494 L468.8303 135.6339 L465.0872 134.2639 L461.183 133.26 L457.1378 132.6427 L452.9724 132.4323 L448.807 132.6427 L444.7619 133.26 L440.8576 134.2639 L437.1146 135.6339 L433.5533 137.3494 L430.1943 139.3901 L427.058 141.7354 L424.1649 144.3648 L421.5355 147.2579 L419.1902 150.3942 L417.1495 153.7532 L415.434 157.3145 L414.6767 159.3835 L414.6552 159.4811" clip-path="url(#clipPath2)"/>
      <path d="M412.7029 167.2393 L420.4802 156.8223 L414.8993 158.5114 L410.7826 154.3819 Z" clip-path="url(#clipPath2)" stroke="none"/>
      <text x="428.95" xml:space="preserve" y="120.1462" clip-path="url(#clipPath2)" font-family="sans-serif" stroke="none">4. shows QR code</text>
      <path fill="none" d="M385.3111 260.6633 L224.7886 371.5773" clip-path="url(#clipPath2)"/>
      <path d="M218.2069 376.1249 L230.9217 373.417 L225.6113 371.0089 L225.2372 365.1899 Z" clip-path="url(#clipPath2)" stroke="none"/>
      <text x="198.8053" xml:space="preserve" y="317.9134" clip-path="url(#clipPath2)" font-family="sans-serif" stroke="none">5. scans the QR code</text>
      <path fill="none" d="M226.2749 399.3164 L359.7524 399.3164" clip-path="url(#clipPath2)"/>
      <path d="M218.2749 399.3164 L230.2749 404.3164 L227.2749 399.3164 L230.2749 394.3164 Z" clip-path="url(#clipPath2)" stroke="none"/>
      <path d="M367.7524 399.3164 L355.7524 394.3164 L358.7524 399.3164 L355.7524 404.3164 Z" clip-path="url(#clipPath2)" stroke="none"/>
      <text x="236.9685" xml:space="preserve" y="392.6797" clip-path="url(#clipPath2)" font-family="sans-serif" stroke="none">6. gets the TX record</text>
      <path fill="none" d="M415.5888 260.6578 L415.5888 365.093" clip-path="url(#clipPath2)"/>
      <path d="M415.5888 373.093 L420.5888 361.093 L415.5888 364.093 L410.5888 361.093 Z" clip-path="url(#clipPath2)" stroke="none"/>
      <text x="354.8915" xml:space="preserve" y="321.5831" clip-path="url(#clipPath2)" font-family="sans-serif" stroke="none">2. sends the TX record</text>
      <path fill="none" d="M218.2923 439.7229 L359.6969 439.7229" clip-path="url(#clipPath2)"/>
      <path d="M367.6969 439.7229 L355.6969 434.7229 L358.6969 439.7229 L355.6969 444.7229 Z" clip-path="url(#clipPath2)" stroke="none"/>
      <text x="250.9666" xml:space="preserve" y="467.0862" clip-path="url(#clipPath2)" font-family="sans-serif" stroke="none">7. sends signed</text>
      <text x="269.9802" xml:space="preserve" y="481.7874" clip-path="url(#clipPath2)" font-family="sans-serif" stroke="none">approval</text>
      <path fill="none" d="M405.0597 466.5827 L404.9838 468.0862 L405.233 473.0204 L405.9643 477.8122 L407.1535 482.4372 L408.7763 486.8711 L410.8085 491.0897 L413.2259 495.0688 L416.004 498.784 L419.1188 502.2111 L422.546 505.3259 L426.2612 508.1041 L430.2402 510.5214 L434.4588 512.5536 L438.8928 514.1765 L443.5177 515.3657 L448.3095 516.097 L453.2438 516.3461 L458.1781 516.097 L462.9699 515.3657 L467.5948 514.1765 L472.0288 512.5536 L476.2474 510.5214 L480.2264 508.1041 L483.9417 505.3259 L487.3688 502.2111 L490.4836 498.784 L493.2617 495.0688 L495.6791 491.0897 L497.7113 486.8711 L499.3341 482.4372 L500.5233 477.8122 L501.0178 474.5722 L501.0205 474.4722" clip-path="url(#clipPath2)"/>
      <path d="M501.433 466.4829 L495.8209 478.209 L500.9689 475.4709 L505.8076 478.7248 Z" clip-path="url(#clipPath2)" stroke="none"/>
      <text x="420.2038" xml:space="preserve" y="535.06" clip-path="url(#clipPath2)" font-family="sans-serif" stroke="none">8. verifies and countersigns</text>
      <path fill="none" d="M497.2245 373.105 L497.2245 268.6584" clip-path="url(#clipPath2)"/>
      <path d="M497.2245 260.6584 L492.2245 272.6584 L497.2245 269.6584 L502.2245 272.6584 Z" clip-path="url(#clipPath2)" stroke="none"/>
      <text x="459.871" xml:space="preserve" y="348.7483" clip-path="url(#clipPath2)" font-family="sans-serif" stroke="none">3. verifies and</text>
      <text x="459.2001" xml:space="preserve" y="363.4494" clip-path="url(#clipPath2)" font-family="sans-serif" stroke="none">acknowledges</text>
      <path fill="none" d="M538.8019 419.8477 L728.9268 419.8954" clip-path="url(#clipPath2)"/>
      <path d="M736.9268 419.8975 L724.9281 414.8944 L727.9268 419.8952 L724.9255 424.8944 Z" clip-path="url(#clipPath2)" stroke="none"/>
      <text x="570.1705" xml:space="preserve" y="413.2183" clip-path="url(#clipPath2)" font-family="sans-serif" stroke="none">9. submits the microblock</text>
      <path fill="none" d="M218.2375 213.9123 L359.4398 213.9123" clip-path="url(#clipPath2)"/>
      <path d="M367.4398 213.9123 L355.4398 208.9123 L358.4398 213.9123 L355.4398 218.9123 Z" clip-path="url(#clipPath2)" stroke="none"/>
      <text x="255.8377" xml:space="preserve" y="181.2756" clip-path="url(#clipPath2)" font-family="sans-serif" stroke="none">1. initiates the</text>
      <text x="263.5106" xml:space="preserve" y="195.9767" clip-path="url(#clipPath2)" font-family="sans-serif" stroke="none">transaction</text>
    </g>
    <g stroke-linecap="round" transform="matrix(1,0,0,1,-32,20)" stroke-dashoffset="2" fill="gray" text-rendering="geometricPrecision" shape-rendering="geometricPrecision" stroke-dasharray="0,8" stroke="gray" stroke-width="2" stroke-miterlimit="1.45">
      <path fill="none" d="M292.9408 -1.5895 L292.9408 592.7941" clip-path="url(#clipPath2)"/>
      <path fill="none" d="M613.3264 -1.5895 L613.3264 592.7941" clip-path="url(#clipPath2)"/>
    </g>
    <g text-rendering="geometricPrecision" stroke-miterlimit="1.45" shape-rendering="geometricPrecision" transform="matrix(1,0,0,1,-32,20)" stroke-linecap="butt">
      <path fill="none" d="M827.1298 366.258 L852.8127 322.0228" clip-path="url(#clipPath2)"/>
      <path d="M823.1129 373.1765 L833.4622 365.3093 L827.6318 365.3932 L824.8141 360.2882 Z" clip-path="url(#clipPath2)" stroke="none"/>
      <path d="M856.8295 315.1043 L846.4802 322.9715 L852.3106 322.8876 L855.1283 327.9925 Z" clip-path="url(#clipPath2)" stroke="none"/>
      <path fill="none" d="M764.8265 366.258 L739.1436 322.0228" clip-path="url(#clipPath2)"/>
      <path d="M768.8434 373.1765 L767.1422 360.2882 L764.3245 365.3932 L758.4941 365.3093 Z" clip-path="url(#clipPath2)" stroke="none"/>
      <path d="M735.1268 315.1043 L736.828 327.9925 L739.6457 322.8876 L745.4761 322.9715 Z" clip-path="url(#clipPath2)" stroke="none"/>
      <path fill="none" d="M775.0339 273.5 L816.9386 273.5" clip-path="url(#clipPath2)"/>
      <path d="M767.0339 273.5 L779.0339 278.5 L776.0339 273.5 L779.0339 268.5 Z" clip-path="url(#clipPath2)" stroke="none"/>
      <path d="M824.9386 273.5 L812.9386 268.5 L815.9386 273.5 L812.9386 278.5 Z" clip-path="url(#clipPath2)" stroke="none"/>
    </g>
  </g>
</svg>
